# xmcd
#
# Track frame offsets:
#	150
#	11112
#	23115
#	37232
#	51446
#	64411
#	74213
#	86453
#	100595
#	111381
#	124058
#	135628
#	147272
#	158295
#	171156
#	184434
#	200382
#	213010
#	225485
#	235854
#	248254
#	261252
#	271248
#	282130
#	295588
#	308161
#	319915
#
# Disc length: 4407 seconds
#
# Revision: 0
# Processed by: cddbd v1.5.2PL0 Copyright (c) Steve Scherf et al.
# Submitted via: audiograbber 1.83.01
#
DISCID=8a11351b
DTITLE=Howlin' Wolf - The Complete RPM and Chess Singles As and Bs 1951-62 CD2
DYEAR=2014
DGENRE=Blues
TTITLE0=Come To Me Baby
TTITLE1=Don't Mess With My Baby
TTITLE2=Smokestack Lightnin'
TTITLE3=You Can't Be Beat
TTITLE4=I Asked For Water
TTITLE5=So Glad
TTITLE6=Goin' Back Home
TTITLE7=My Life
TTITLE8=Somebody In My Home
TTITLE9=Nature
TTITLE10=Poor Boy
TTITLE11=Sittin' On Top Of The World
TTITLE12=I Didn't Know
TTITLE13=Moaning For My Baby
TTITLE14=I'm Leaving You
TTITLE15=Change My Ways
TTITLE16=Howlin' Blues
TTITLE17=I Better Go Now
TTITLE18=I'ver Been Abused
TTITLE19=Mister Airplane Man
TTITLE20=You Gonna Wreck My Life
TTITLE21=The Natchez Burning
TTITLE22=Who's Been Talking
TTITLE23=Tell Me
TTITLE24=Spoonful
TTITLE25=Howlin' For My Baby
TTITLE26=Wang Dang Doodle
EXTD=
EXTT0=
EXTT1=
EXTT2=
EXTT3=
EXTT4=
EXTT5=
EXTT6=
EXTT7=
EXTT8=
EXTT9=
EXTT10=
EXTT11=
EXTT12=
EXTT13=
EXTT14=
EXTT15=
EXTT16=
EXTT17=
EXTT18=
EXTT19=
EXTT20=
EXTT21=
EXTT22=
EXTT23=
EXTT24=
EXTT25=
EXTT26=
PLAYORDER=
